<svg xmlns="http://www.w3.org/2000/svg" xmlns:xlink="http://www.w3.org/1999/xlink" version="1.1" width="256" height="256" viewBox="0 0 256 256" xml:space="preserve">
<desc>Created with Fabric.js 1.7.22</desc>
<defs>
</defs>
<g transform="translate(128 128) scale(0.72 0.72)" style="">
	<g style="stroke: none; stroke-width: 0; stroke-dasharray: none; stroke-linecap: butt; stroke-linejoin: miter; stroke-miterlimit: 10; fill: none; fill-rule: nonzero; opacity: 1;" transform="translate(-175.05 -175.05000000000004) scale(3.89 3.89)" >
	<path d="M 45 0 C 20.187 0 0 20.187 0 45 c 0 24.813 20.187 45 45 45 c 24.813 0 45 -20.187 45 -45 C 90 20.187 69.813 0 45 0 z M 47 30.212 c 5.671 -0.183 11.175 -1.144 16.259 -2.793 c 1.16 4.786 1.869 10.06 2.008 15.581 H 47 V 30.212 z M 47 26.212 V 4.21 c 6.332 1.319 11.909 8.815 15.193 19.36 C 57.461 25.122 52.315 26.029 47 26.212 z M 43 4.21 v 22.002 c -5.315 -0.183 -10.461 -1.09 -15.192 -2.642 C 31.091 13.025 36.668 5.529 43 4.21 z M 43 30.212 V 43 H 24.734 c 0.139 -5.52 0.848 -10.795 2.008 -15.581 C 31.825 29.068 37.329 30.028 43 30.212 z M 20.734 43 H 4.051 c 0.415 -8.593 3.492 -16.496 8.417 -22.912 c 3.086 2.362 6.612 4.343 10.436 5.919 C 21.633 31.186 20.871 36.917 20.734 43 z M 20.734 47 c 0.137 6.083 0.899 11.814 2.17 16.993 c -3.825 1.576 -7.351 3.557 -10.437 5.919 C 7.543 63.496 4.466 55.593 4.051 47 H 20.734 z M 24.734 47 H 43 v 12.789 c -5.671 0.183 -11.175 1.144 -16.259 2.792 C 25.581 57.795 24.872 52.52 24.734 47 z M 43 63.788 V 85.79 c -6.332 -1.319 -11.909 -8.815 -15.192 -19.361 C 32.539 64.878 37.685 63.971 43 63.788 z M 47 85.79 V 63.788 c 5.315 0.183 10.461 1.09 15.193 2.642 C 58.909 76.976 53.332 84.471 47 85.79 z M 47 59.789 V 47 h 18.267 c -0.139 5.521 -0.848 10.795 -2.008 15.581 C 58.175 60.932 52.671 59.972 47 59.789 z M 69.267 47 h 16.683 c -0.415 8.593 -3.492 16.496 -8.417 22.912 c -3.086 -2.362 -6.611 -4.343 -10.436 -5.919 C 68.367 58.814 69.129 53.083 69.267 47 z M 69.267 43 c -0.137 -6.083 -0.899 -11.814 -2.17 -16.993 c 3.824 -1.576 7.35 -3.557 10.436 -5.919 c 4.925 6.416 8.002 14.319 8.417 22.912 H 69.267 z M 74.941 17.032 c -2.652 2.009 -5.659 3.718 -8.921 5.102 c -2.129 -6.81 -5.195 -12.43 -8.897 -16.304 C 64.015 7.968 70.129 11.884 74.941 17.032 z M 32.878 5.83 c -3.702 3.874 -6.768 9.494 -8.897 16.304 c -3.262 -1.384 -6.269 -3.093 -8.922 -5.102 C 19.871 11.884 25.985 7.968 32.878 5.83 z M 15.059 72.968 c 2.652 -2.009 5.659 -3.718 8.922 -5.102 c 2.129 6.81 5.195 12.43 8.897 16.304 C 25.985 82.032 19.871 78.116 15.059 72.968 z M 57.122 84.17 c 3.702 -3.874 6.768 -9.494 8.897 -16.304 c 3.262 1.384 6.269 3.093 8.921 5.102 C 70.129 78.116 64.015 82.032 57.122 84.17 z" style="stroke: none; stroke-width: 1; stroke-dasharray: none; stroke-linecap: butt; stroke-linejoin: miter; stroke-miterlimit: 10; fill: rgb(255,255,255); fill-rule: nonzero; opacity: 1;" transform=" matrix(1 0 0 1 0 0) " stroke-linecap="round" />
</g>
</g>
</svg>